<svg width="16" height="16" viewBox="0 0 24 22" fill="none" xmlns="http://www.w3.org/2000/svg">
<path d="M20.84 3.60995C20.3292 3.09896 19.7228 2.6936 19.0554 2.41704C18.3879 2.14048 17.6725 1.99813 16.95 1.99813C16.2275 1.99813 15.5121 2.14048 14.8446 2.41704C14.1772 2.6936 13.5708 3.09896 13.06 3.60995L12 4.66995L10.94 3.60995C9.9083 2.57826 8.50903 1.99866 7.05 1.99866C5.59096 1.99866 4.19169 2.57826 3.16 3.60995C2.1283 4.64165 1.54871 6.04092 1.54871 7.49995C1.54871 8.95899 2.1283 10.3583 3.16 11.39L4.22 12.45L12 20.23L19.78 12.45L20.84 11.39C21.351 10.8792 21.7563 10.2728 22.0329 9.60531C22.3095 8.93785 22.4518 8.22244 22.4518 7.49995C22.4518 6.77747 22.3095 6.06206 22.0329 5.3946C21.7563 4.72714 21.351 4.12071 20.84 3.60995Z" fill="currentColor" stroke="currentColor" stroke-width="2" stroke-linecap="round" stroke-linejoin="round"/>
</svg>
