<svg width="151" height="37" viewBox="0 0 151 37" fill="none" xmlns="http://www.w3.org/2000/svg">
<path d="M10.1641 17.944L21.2012 6.42529C21.4751 6.13937 21.9431 6.45358 21.7748 6.81048L18.2054 14.3826C17.9342 14.9579 18.3593 15.6168 19.0016 15.6168H24.8266C25.632 15.6168 26.0128 16.5985 25.4136 17.1303L11.7861 29.2226C11.4855 29.4894 11.0415 29.1262 11.2506 28.7847L16.1843 20.7254C16.5384 20.147 16.1168 19.4084 15.4326 19.4084H10.802C10.031 19.4084 9.63406 18.4972 10.1641 17.944Z" fill="url(#paint0_linear)"/>
<circle cx="18.0399" cy="18.0399" r="16.4614" stroke="url(#paint1_linear)" stroke-width="3.15698"/>
<path d="M51.5203 18.7226C51.5203 17.714 51.6834 16.7449 52.0097 15.8154C52.346 14.8859 52.8453 14.0651 53.5079 13.3531C54.1803 12.6412 55.006 12.0726 55.9849 11.6474C56.9738 11.2222 58.106 11.0096 59.3817 11.0096C60.6177 11.0096 61.6906 11.1826 62.6004 11.5287C63.5101 11.8748 64.2716 12.3346 64.8847 12.9082C65.5076 13.4718 65.9872 14.1245 66.3234 14.8661C66.6596 15.5978 66.8673 16.3593 66.9464 17.1504H62.3037C62.2049 16.4977 61.9329 15.9687 61.4879 15.5632C61.0528 15.1578 60.3606 14.9551 59.4113 14.9551C58.8675 14.9551 58.3879 15.0589 57.9725 15.2666C57.5572 15.4644 57.2161 15.7363 56.9491 16.0824C56.692 16.4285 56.4942 16.829 56.3558 17.2838C56.2272 17.7387 56.1629 18.2183 56.1629 18.7226C56.1629 19.2269 56.2272 19.7115 56.3558 20.1763C56.4942 20.6311 56.6969 21.0316 56.9639 21.3777C57.2408 21.7139 57.5968 21.9859 58.0319 22.1935C58.467 22.3913 58.9861 22.4902 59.5893 22.4902C60.4002 22.4902 61.0083 22.327 61.4138 22.0007C61.8192 21.6645 62.1257 21.1799 62.3334 20.5471H66.9761C66.8574 21.3777 66.6151 22.154 66.2493 22.8758C65.8834 23.5977 65.384 24.2207 64.7512 24.7448C64.1282 25.2689 63.3668 25.6842 62.4669 25.9907C61.567 26.2973 60.5386 26.4505 59.3817 26.4505C58.106 26.4505 56.9738 26.2379 55.9849 25.8127C55.006 25.3875 54.1803 24.8189 53.5079 24.107C52.8453 23.395 52.346 22.5742 52.0097 21.6447C51.6834 20.7152 51.5203 19.7412 51.5203 18.7226Z" fill="#131128"/>
<path d="M66.9927 18.7226C66.9927 17.6744 67.1756 16.6856 67.5415 15.7561C67.9173 14.8265 68.4562 14.0107 69.1583 13.3086C69.8604 12.6066 70.7108 12.0479 71.7095 11.6325C72.7083 11.2172 73.8356 11.0096 75.0914 11.0096C76.3671 11.0096 77.5042 11.2172 78.503 11.6325C79.5116 12.0479 80.362 12.6066 81.0542 13.3086C81.7563 14.0107 82.2952 14.8265 82.671 15.7561C83.0468 16.6856 83.2347 17.6744 83.2347 18.7226C83.2347 19.7708 83.0468 20.7646 82.671 21.704C82.2952 22.6336 81.7563 23.4494 81.0542 24.1515C80.362 24.8535 79.5116 25.4122 78.503 25.8276C77.5042 26.2429 76.3671 26.4505 75.0914 26.4505C73.8356 26.4505 72.7083 26.2429 71.7095 25.8276C70.7108 25.4122 69.8604 24.8535 69.1583 24.1515C68.4562 23.4494 67.9173 22.6336 67.5415 21.704C67.1756 20.7745 66.9927 19.7807 66.9927 18.7226ZM71.6354 18.7226C71.6354 19.2467 71.7145 19.7362 71.8727 20.1911C72.0408 20.6361 72.2732 21.0316 72.5698 21.3777C72.8764 21.7139 73.2423 21.9809 73.6675 22.1787C74.0927 22.3666 74.5673 22.4605 75.0914 22.4605C75.6155 22.4605 76.0951 22.3666 76.5302 22.1787C76.9752 21.9809 77.346 21.7139 77.6427 21.3777C77.9492 21.0316 78.1865 20.6361 78.3547 20.1911C78.5326 19.7461 78.6216 19.2566 78.6216 18.7226C78.6216 18.2183 78.5326 17.7387 78.3547 17.2838C78.1865 16.829 77.9492 16.4334 77.6427 16.0972C77.346 15.761 76.9801 15.494 76.545 15.2962C76.1099 15.0985 75.6254 14.9996 75.0914 14.9996C74.5673 14.9996 74.0927 15.0985 73.6675 15.2962C73.2423 15.494 72.8764 15.761 72.5698 16.0972C72.2732 16.4334 72.0408 16.829 71.8727 17.2838C71.7145 17.7387 71.6354 18.2183 71.6354 18.7226Z" fill="#131128"/>
<path d="M84.3489 26.0501V11.41H88.9916V13.5311C89.397 12.7401 90.0101 12.127 90.8308 11.6919C91.6516 11.2568 92.6404 11.0392 93.7974 11.0392C94.7467 11.0392 95.5675 11.1876 96.2597 11.4842C96.9519 11.7809 97.5007 12.1912 97.9061 12.7153C98.3709 13.279 98.6774 13.9316 98.8257 14.6733C98.9741 15.4149 99.0482 16.3098 99.0482 17.358V26.0501H94.4056V18.5446C94.4056 17.4965 94.2177 16.646 93.8419 15.9934C93.4661 15.3309 92.7937 14.9996 91.8246 14.9996C90.8753 14.9996 90.1634 15.3358 89.6887 16.0082C89.224 16.6708 88.9916 17.5657 88.9916 18.693V26.0501H84.3489Z" fill="#131128"/>
<path d="M100.073 18.7226C100.073 17.625 100.242 16.6065 100.578 15.6671C100.924 14.7277 101.408 13.9217 102.031 13.2493C102.664 12.567 103.421 12.0281 104.301 11.6325C105.181 11.237 106.15 11.0392 107.208 11.0392C107.673 11.0392 108.138 11.1084 108.602 11.2469C109.067 11.3754 109.497 11.5534 109.893 11.7809C110.288 11.9984 110.639 12.2605 110.946 12.567C111.253 12.8637 111.495 13.1752 111.673 13.5015V4.77977H116.315V26.0501H111.673V23.9883C111.495 24.3344 111.253 24.6558 110.946 24.9524C110.639 25.2392 110.288 25.4914 109.893 25.7089C109.497 25.9166 109.067 26.0847 108.602 26.2132C108.138 26.3517 107.673 26.4209 107.208 26.4209C106.16 26.4209 105.191 26.2231 104.301 25.8276C103.421 25.432 102.664 24.8931 102.031 24.2108C101.408 23.5285 100.924 22.7176 100.578 21.7782C100.242 20.8388 100.073 19.8203 100.073 18.7226ZM104.686 18.7226C104.686 19.2269 104.771 19.7115 104.939 20.1763C105.117 20.6311 105.354 21.0267 105.651 21.3629C105.957 21.6892 106.323 21.9562 106.748 22.1639C107.173 22.3616 107.648 22.4605 108.172 22.4605C108.696 22.4605 109.171 22.3616 109.596 22.1639C110.031 21.9562 110.397 21.6892 110.694 21.3629C111 21.0267 111.238 20.6311 111.406 20.1763C111.584 19.7214 111.673 19.2368 111.673 18.7226C111.673 18.2183 111.584 17.7437 111.406 17.2987C111.238 16.8537 111 16.4582 110.694 16.1121C110.397 15.766 110.036 15.494 109.611 15.2962C109.186 15.0985 108.706 14.9996 108.172 14.9996C107.648 14.9996 107.173 15.0985 106.748 15.2962C106.323 15.494 105.957 15.766 105.651 16.1121C105.354 16.4582 105.117 16.8537 104.939 17.2987C104.771 17.7437 104.686 18.2183 104.686 18.7226Z" fill="#131128"/>
<path d="M118.26 20.1021V11.41H122.873V18.9155C122.873 19.9636 123.061 20.819 123.437 21.4815C123.813 22.1342 124.485 22.4605 125.454 22.4605C126.423 22.4605 127.135 22.1292 127.59 21.4667C128.055 20.7943 128.287 19.8895 128.287 18.7523V11.41H132.93V26.0501H128.287V23.9586C127.882 24.7299 127.269 25.3331 126.448 25.7682C125.627 26.2033 124.638 26.4209 123.481 26.4209C122.532 26.4209 121.711 26.2725 121.019 25.9759C120.337 25.6792 119.793 25.2689 119.388 24.7448C118.923 24.1811 118.616 23.5285 118.468 22.7868C118.33 22.0452 118.26 21.1503 118.26 20.1021Z" fill="#131128"/>
<path d="M134.4 6.54487C134.4 5.71423 134.682 5.01709 135.246 4.45344C135.819 3.8898 136.531 3.60797 137.382 3.60797C137.807 3.60797 138.202 3.68214 138.568 3.83046C138.934 3.97879 139.251 4.18645 139.518 4.45344C139.794 4.71055 140.007 5.02204 140.155 5.38791C140.314 5.75379 140.393 6.13944 140.393 6.54487C140.393 6.9503 140.314 7.33101 140.155 7.687C140.007 8.04299 139.794 8.35942 139.518 8.6363C139.251 8.90329 138.934 9.1159 138.568 9.27412C138.202 9.42244 137.807 9.49661 137.382 9.49661C136.956 9.49661 136.566 9.42244 136.21 9.27412C135.854 9.1159 135.537 8.90329 135.261 8.6363C134.994 8.35942 134.781 8.04299 134.623 7.687C134.474 7.33101 134.4 6.9503 134.4 6.54487ZM135.068 26.0501V11.41H139.71V26.0501H135.068Z" fill="#131128"/>
<path d="M140.394 14.8661V11.41H142.694V7.06402H147.321V11.41H150.659V14.8661H147.321V20.1021C147.321 20.646 147.371 21.0811 147.47 21.4074C147.569 21.7238 147.707 21.971 147.885 22.149C148.073 22.3171 148.286 22.4358 148.523 22.505C148.77 22.5643 149.037 22.594 149.324 22.594C149.611 22.594 149.902 22.5891 150.199 22.5792C150.506 22.5594 150.773 22.5297 151 22.4902V26.0501C150.654 26.1094 150.219 26.1638 149.695 26.2132C149.18 26.2627 148.582 26.2874 147.9 26.2874C147.356 26.2874 146.778 26.2478 146.164 26.1687C145.551 26.0896 144.988 25.882 144.474 25.5457C143.959 25.2095 143.534 24.6953 143.198 24.0031C142.862 23.301 142.694 22.3418 142.694 21.1256V14.8661H140.394Z" fill="#131128"/>
<defs>
<linearGradient id="paint0_linear" x1="16.9123" y1="0.451002" x2="17.1378" y2="33.8248" gradientUnits="userSpaceOnUse">
<stop stop-color="#30C1FF"/>
<stop offset="1" stop-color="#30FFDA"/>
</linearGradient>
<linearGradient id="paint1_linear" x1="15.9782" y1="-9.1968" x2="16.2209" y2="43.1555" gradientUnits="userSpaceOnUse">
<stop stop-color="#30C1FF"/>
<stop offset="1" stop-color="#30FFDA"/>
</linearGradient>
</defs>
</svg>
