<svg width="150" height="37" viewBox="0 0 150 37" fill="none" xmlns="http://www.w3.org/2000/svg">
<path d="M10.0966 18.4667L21.0606 7.02432C21.3327 6.74029 21.7976 7.05242 21.6304 7.40696L18.0846 14.9289C17.8152 15.5004 18.2375 16.155 18.8756 16.155H24.662C25.4621 16.155 25.8404 17.1301 25.2451 17.6584L11.7078 29.6706C11.4092 29.9356 10.9682 29.5749 11.1759 29.2357L16.0769 21.2297C16.4287 20.6552 16.0099 19.9215 15.3302 19.9215H10.7303C9.96437 19.9215 9.57005 19.0163 10.0966 18.4667Z" fill="white"/>
<circle cx="17.9204" cy="18.562" r="16.1015" stroke="white" stroke-width="3.63784"/>
<path d="M51.1792 19.2402C51.1792 18.2383 51.3413 17.2756 51.6654 16.3522C51.9994 15.4289 52.4955 14.6136 53.1536 13.9063C53.8216 13.199 54.6418 12.6342 55.6143 12.2118C56.5966 11.7894 57.7214 11.5782 58.9885 11.5782C60.2164 11.5782 61.2822 11.7501 62.186 12.0939C63.0897 12.4377 63.8461 12.8945 64.4551 13.4643C65.0739 14.0242 65.5504 14.6725 65.8843 15.4092C66.2183 16.1361 66.4246 16.8925 66.5032 17.6784H61.8913C61.793 17.03 61.5229 16.5045 61.0809 16.1017C60.6486 15.699 59.961 15.4976 59.018 15.4976C58.4777 15.4976 58.0013 15.6008 57.5888 15.8071C57.1762 16.0035 56.8373 16.2737 56.5721 16.6175C56.3167 16.9613 56.1202 17.3591 55.9827 17.811C55.855 18.2628 55.7911 18.7392 55.7911 19.2402C55.7911 19.7412 55.855 20.2225 55.9827 20.6842C56.1202 21.1361 56.3216 21.5339 56.5868 21.8777C56.8618 22.2117 57.2155 22.4818 57.6477 22.6881C58.0799 22.8846 58.5956 22.9828 59.1948 22.9828C60.0003 22.9828 60.6044 22.8207 61.0072 22.4966C61.4099 22.1626 61.7144 21.6813 61.9207 21.0526H66.5327C66.4148 21.8777 66.1741 22.6488 65.8107 23.3659C65.4472 24.083 64.9512 24.7018 64.3225 25.2225C63.7036 25.7431 62.9472 26.1557 62.0533 26.4602C61.1594 26.7647 60.1378 26.917 58.9885 26.917C57.7214 26.917 56.5966 26.7058 55.6143 26.2834C54.6418 25.861 53.8216 25.2961 53.1536 24.5889C52.4955 23.8816 51.9994 23.0663 51.6654 22.1429C51.3413 21.2196 51.1792 20.252 51.1792 19.2402Z" fill="white"/>
<path d="M66.5492 19.2402C66.5492 18.199 66.7309 17.2167 67.0944 16.2933C67.4676 15.3699 68.003 14.5595 68.7004 13.8621C69.3979 13.1646 70.2427 12.6096 71.2348 12.1971C72.2269 11.7845 73.3467 11.5782 74.5943 11.5782C75.8615 11.5782 76.9911 11.7845 77.9832 12.1971C78.9852 12.6096 79.83 13.1646 80.5176 13.8621C81.215 14.5595 81.7504 15.3699 82.1237 16.2933C82.4969 17.2167 82.6836 18.199 82.6836 19.2402C82.6836 20.2815 82.4969 21.2687 82.1237 22.2019C81.7504 23.1252 81.215 23.9356 80.5176 24.6331C79.83 25.3305 78.9852 25.8855 77.9832 26.2981C76.9911 26.7107 75.8615 26.917 74.5943 26.917C73.3467 26.917 72.2269 26.7107 71.2348 26.2981C70.2427 25.8855 69.3979 25.3305 68.7004 24.6331C68.003 23.9356 67.4676 23.1252 67.0944 22.2019C66.7309 21.2785 66.5492 20.2913 66.5492 19.2402ZM71.1611 19.2402C71.1611 19.7608 71.2397 20.2471 71.3969 20.6989C71.5639 21.141 71.7947 21.5339 72.0894 21.8777C72.3939 22.2117 72.7574 22.4769 73.1798 22.6734C73.6021 22.86 74.0737 22.9533 74.5943 22.9533C75.1149 22.9533 75.5913 22.86 76.0235 22.6734C76.4656 22.4769 76.8339 22.2117 77.1286 21.8777C77.4331 21.5339 77.6689 21.141 77.8359 20.6989C78.0127 20.2569 78.1011 19.7707 78.1011 19.2402C78.1011 18.7392 78.0127 18.2628 77.8359 17.811C77.6689 17.3591 77.4331 16.9662 77.1286 16.6322C76.8339 16.2982 76.4705 16.033 76.0383 15.8365C75.6061 15.6401 75.1247 15.5418 74.5943 15.5418C74.0737 15.5418 73.6021 15.6401 73.1798 15.8365C72.7574 16.033 72.3939 16.2982 72.0894 16.6322C71.7947 16.9662 71.5639 17.3591 71.3969 17.811C71.2397 18.2628 71.1611 18.7392 71.1611 19.2402Z" fill="white"/>
<path d="M83.7904 26.5191V11.9761H88.4024V14.0831C88.8051 13.2973 89.4142 12.6882 90.2295 12.256C91.0448 11.8238 92.0271 11.6077 93.1764 11.6077C94.1194 11.6077 94.9347 11.755 95.6223 12.0497C96.31 12.3444 96.8551 12.7521 97.2579 13.2727C97.7196 13.8326 98.0241 14.4809 98.1714 15.2177C98.3188 15.9544 98.3924 16.8434 98.3924 17.8846V26.5191H93.7805V19.0634C93.7805 18.0222 93.5939 17.1774 93.2206 16.529C92.8473 15.8709 92.1794 15.5418 91.2167 15.5418C90.2737 15.5418 89.5664 15.8758 89.0949 16.5438C88.6332 17.2019 88.4024 18.0909 88.4024 19.2107V26.5191H83.7904Z" fill="white"/>
<path d="M99.4109 19.2402C99.4109 18.1499 99.5779 17.1381 99.9119 16.2049C100.256 15.2717 100.737 14.4711 101.356 13.8031C101.985 13.1254 102.736 12.59 103.61 12.1971C104.485 11.8042 105.447 11.6077 106.498 11.6077C106.96 11.6077 107.422 11.6765 107.883 11.814C108.345 11.9417 108.772 12.1185 109.165 12.3444C109.558 12.5605 109.907 12.8208 110.211 13.1254C110.516 13.42 110.757 13.7295 110.933 14.0536V5.38968H115.545V26.5191H110.933V24.471C110.757 24.8148 110.516 25.1341 110.211 25.4288C109.907 25.7136 109.558 25.9641 109.165 26.1802C108.772 26.3865 108.345 26.5535 107.883 26.6812C107.422 26.8187 106.96 26.8875 106.498 26.8875C105.457 26.8875 104.494 26.691 103.61 26.2981C102.736 25.9052 101.985 25.3698 101.356 24.692C100.737 24.0142 100.256 23.2087 99.9119 22.2755C99.5779 21.3424 99.4109 20.3306 99.4109 19.2402ZM103.993 19.2402C103.993 19.7412 104.077 20.2225 104.244 20.6842C104.421 21.1361 104.656 21.529 104.951 21.863C105.256 22.1871 105.619 22.4524 106.041 22.6586C106.464 22.8551 106.935 22.9533 107.456 22.9533C107.977 22.9533 108.448 22.8551 108.871 22.6586C109.303 22.4524 109.666 22.1871 109.961 21.863C110.265 21.529 110.501 21.1361 110.668 20.6842C110.845 20.2323 110.933 19.751 110.933 19.2402C110.933 18.7392 110.845 18.2677 110.668 17.8257C110.501 17.3837 110.265 16.9907 109.961 16.6469C109.666 16.3031 109.308 16.033 108.885 15.8365C108.463 15.6401 107.986 15.5418 107.456 15.5418C106.935 15.5418 106.464 15.6401 106.041 15.8365C105.619 16.033 105.256 16.3031 104.951 16.6469C104.656 16.9907 104.421 17.3837 104.244 17.8257C104.077 18.2677 103.993 18.7392 103.993 19.2402Z" fill="white"/>
<path d="M117.477 20.6105V11.9761H122.06V19.4318C122.06 20.473 122.246 21.3227 122.62 21.9809C122.993 22.6292 123.661 22.9533 124.624 22.9533C125.586 22.9533 126.294 22.6243 126.745 21.9661C127.207 21.2982 127.438 20.3993 127.438 19.2697V11.9761H132.05V26.5191H127.438V24.4415C127.035 25.2077 126.426 25.8069 125.611 26.2392C124.796 26.6714 123.813 26.8875 122.664 26.8875C121.721 26.8875 120.906 26.7401 120.218 26.4454C119.54 26.1508 119 25.7431 118.597 25.2225C118.135 24.6626 117.831 24.0142 117.684 23.2775C117.546 22.5408 117.477 21.6518 117.477 20.6105Z" fill="white"/>
<path d="M133.51 7.1431C133.51 6.31796 133.79 5.62544 134.35 5.06552C134.92 4.5056 135.627 4.22565 136.472 4.22565C136.894 4.22565 137.287 4.29932 137.651 4.44667C138.014 4.59401 138.329 4.8003 138.594 5.06552C138.869 5.32092 139.08 5.63035 139.227 5.9938C139.385 6.35725 139.463 6.74035 139.463 7.1431C139.463 7.54585 139.385 7.92404 139.227 8.27767C139.08 8.6313 138.869 8.94564 138.594 9.22068C138.329 9.4859 138.014 9.6971 137.651 9.85427C137.287 10.0016 136.894 10.0753 136.472 10.0753C136.05 10.0753 135.662 10.0016 135.308 9.85427C134.954 9.6971 134.64 9.4859 134.365 9.22068C134.1 8.94564 133.889 8.6313 133.731 8.27767C133.584 7.92404 133.51 7.54585 133.51 7.1431ZM134.173 26.5191V11.9761H138.785V26.5191H134.173Z" fill="white"/>
<path d="M139.465 15.4092V11.9761H141.749V7.65881H146.346V11.9761H149.661V15.4092H146.346V20.6105C146.346 21.1508 146.395 21.583 146.493 21.9072C146.592 22.2215 146.729 22.4671 146.906 22.6439C147.093 22.8109 147.304 22.9288 147.539 22.9975C147.785 23.0565 148.05 23.086 148.335 23.086C148.62 23.086 148.91 23.081 149.204 23.0712C149.509 23.0516 149.774 23.0221 150 22.9828V26.5191C149.656 26.5781 149.224 26.6321 148.703 26.6812C148.193 26.7303 147.598 26.7549 146.921 26.7549C146.38 26.7549 145.806 26.7156 145.197 26.637C144.588 26.5584 144.028 26.3521 143.517 26.0181C143.006 25.6842 142.584 25.1734 142.25 24.4857C141.916 23.7883 141.749 22.8355 141.749 21.6272V15.4092H139.465Z" fill="white"/>
</svg>
