<svg width="563" height="459" viewBox="0 0 563 459" fill="none" xmlns="http://www.w3.org/2000/svg">
<path opacity="0.8" d="M247.295 396.777C380.671 396.777 488.794 384.528 488.794 369.418C488.794 354.308 380.671 342.058 247.295 342.058C113.918 342.058 5.79565 354.308 5.79565 369.418C5.79565 384.528 113.918 396.777 247.295 396.777Z" fill="#FFFEFE"/>
<path d="M79.5751 205.566C79.5751 205.566 43.6918 222.725 39.0101 262.264C34.3283 301.804 21.1066 378.157 118.447 373.803C215.788 369.448 261.691 364.028 238.739 289.776C215.788 215.523 79.5751 205.566 79.5751 205.566Z" fill="#FFD200"/>
<path opacity="0.09" d="M75.8998 226.105C74.8936 231.685 75.5899 237.438 77.8986 242.617C80.2072 247.797 84.0216 252.165 88.847 255.154C102.054 263.848 122.397 294.739 138.15 310.36C140.609 312.793 142.551 315.696 143.861 318.895C145.171 322.094 145.822 325.524 145.775 328.98C145.775 331.797 146.919 334.918 150.64 337.963C161.59 346.9 207.538 351.361 233.234 323.865C258.93 296.368 225.045 282.757 225.045 282.757L112.103 221.72L75.8998 226.105Z" fill="black"/>
<path d="M325.557 360.709C325.557 360.709 327.952 366.799 333.96 368.108C339.969 369.418 343.232 376.848 330.102 375.721C316.972 374.594 309.758 376.573 311.649 369.372C313.54 362.171 312.686 361.09 312.686 361.09L325.557 360.709Z" fill="#F4A28C"/>
<path d="M237.382 355.639C237.382 355.639 236.375 362.049 240.844 366.297C245.312 370.544 244.366 378.477 233.676 370.864C222.986 363.252 215.742 361.257 221.034 356.02C226.326 350.782 226.143 349.412 226.143 349.412L237.382 355.639Z" fill="#F4A28C"/>
<path d="M248.85 264.517C248.85 264.517 329.141 265.34 328.363 360.937L309.423 364.15C309.423 364.15 305.778 263.193 201.438 311.289L206.882 271.521L248.85 264.517Z" fill="#24285B"/>
<path opacity="0.09" d="M248.85 264.517C248.85 264.517 329.141 265.34 328.363 360.937L309.423 364.15C309.423 364.15 305.778 263.193 201.438 311.289L206.882 271.521L248.85 264.517Z" fill="#131128"/>
<path d="M255.148 176.517L262.117 178.374L257.161 173.046L255.148 176.517Z" fill="#FFD200"/>
<path d="M145.623 223.836C145.623 223.836 159.5 258.854 193.371 252.688C227.241 246.522 240.112 175.588 240.112 175.588C240.112 175.588 253.501 166.895 247.02 157.196C240.539 147.498 230.001 168.478 230.001 168.478C230.001 168.478 215.407 228.252 183.824 208.87L145.623 223.836Z" fill="#F4A28C"/>
<path opacity="0.09" d="M145.623 223.836C145.623 223.836 159.5 258.854 193.371 252.688C227.241 246.522 240.112 175.588 240.112 175.588C240.112 175.588 253.501 166.895 247.02 157.196C240.539 147.498 230.001 168.478 230.001 168.478C230.001 168.478 215.407 228.252 183.824 208.87L145.623 223.836Z" fill="black"/>
<path d="M146.05 152.705L153.37 154.228C153.37 154.228 209.947 184.891 199.425 215.6C188.902 246.308 211.884 275.464 211.884 275.464L162.688 310.055C162.688 310.055 98.424 278.22 108.047 190.524C108.047 190.524 112.515 149.675 146.05 152.705Z" fill="#30CFF6"/>
<path d="M274.265 169.176L268.594 166.454C267.598 165.976 266.402 166.395 265.923 167.39L229.574 242.862C229.095 243.857 229.513 245.051 230.509 245.529L236.18 248.251C237.176 248.729 238.372 248.31 238.851 247.315L275.2 171.844C275.679 170.848 275.261 169.654 274.265 169.176Z" fill="white"/>
<path opacity="0.58" d="M407.45 354.345C407.45 354.345 391.834 350.082 388.433 335.573C388.433 335.573 412.635 330.685 413.321 355.624L407.45 354.345Z" fill="#30FFDA"/>
<path opacity="0.73" d="M409.326 352.822C409.326 352.822 398.407 335.603 408.014 319.495C408.014 319.495 426.421 331.157 418.247 352.868L409.326 352.822Z" fill="#30FFDA"/>
<path d="M412.132 352.822C412.132 352.822 417.896 334.629 435.327 331.188C435.327 331.188 438.606 343.002 424.042 352.868L412.132 352.822Z" fill="#30FFDA"/>
<path d="M400.801 352.381L403.973 374.016L423.92 374.092L426.863 352.488L400.801 352.381Z" fill="#24285B"/>
<path opacity="0.7" d="M370.58 53.3315H265.895C264.238 53.3315 262.895 54.6747 262.895 56.3315V127.705C262.895 129.362 264.238 130.705 265.895 130.705H370.58C372.237 130.705 373.58 129.362 373.58 127.705V56.3315C373.58 54.6747 372.237 53.3315 370.58 53.3315Z" fill="white"/>
<path opacity="0.7" d="M469.888 161.718H375.924C374.267 161.718 372.924 163.061 372.924 164.718V228.601C372.924 230.258 374.267 231.601 375.924 231.601H469.888C471.545 231.601 472.888 230.258 472.888 228.601V164.718C472.888 163.061 471.545 161.718 469.888 161.718Z" fill="white"/>
<path d="M292.099 89.293C299.233 89.293 305.016 83.5194 305.016 76.3974C305.016 69.2754 299.233 63.5018 292.099 63.5018C284.965 63.5018 279.182 69.2754 279.182 76.3974C279.182 83.5194 284.965 89.293 292.099 89.293Z" fill="white"/>
<path opacity="0.7" d="M353.201 65.4506H324.83C322.621 65.4506 320.83 67.2415 320.83 69.4506V111.891C320.83 114.1 322.621 115.891 324.83 115.891H353.201C355.41 115.891 357.201 114.1 357.201 111.891V69.4506C357.201 67.2415 355.41 65.4506 353.201 65.4506Z" fill="white"/>
<path opacity="0.7" d="M302.388 98.9761H285.409C283.2 98.9761 281.409 100.767 281.409 102.976V111.891C281.409 114.1 283.2 115.891 285.409 115.891H302.388C304.597 115.891 306.388 114.1 306.388 111.891V102.976C306.388 100.767 304.597 98.9761 302.388 98.9761Z" fill="white"/>
<path d="M143.366 114.186L133.179 150.041L153.37 154.228L152.683 126.457L143.366 114.186Z" fill="#F4A28C"/>
<path opacity="0.31" d="M153.095 132.532C150.645 131.578 148.526 129.933 146.995 127.797C146.995 127.797 146.477 134.603 153.095 142.169V132.532Z" fill="#CE8172"/>
<path d="M164.274 115.313C164.274 115.313 163.267 126.64 160.065 133.72C159.755 134.41 159.312 135.031 158.759 135.549C158.207 136.066 157.556 136.468 156.847 136.731C156.137 136.995 155.382 137.115 154.625 137.084C153.868 137.053 153.125 136.872 152.44 136.551C148.886 134.892 144.571 131.618 144.372 125.483L142.756 115.115C142.654 113.004 143.209 110.914 144.345 109.131C145.481 107.348 147.142 105.96 149.1 105.157C156.267 101.61 165.234 108.37 164.274 115.313Z" fill="#F4A28C"/>
<path d="M150.655 122.712C150.655 122.712 151.342 118.388 148.032 118.144C144.723 117.901 143.701 124.143 148.032 125.498L150.655 122.712Z" fill="#F4A28C"/>
<path d="M163.267 122.331L165.631 127.203C165.764 127.48 165.826 127.787 165.809 128.094C165.792 128.401 165.698 128.699 165.536 128.96C165.373 129.221 165.147 129.437 164.878 129.588C164.61 129.738 164.307 129.819 163.999 129.822H159.577L163.267 122.331Z" fill="#F4A28C"/>
<path d="M257.169 173.044L222.329 152.962L220.324 156.429L255.164 176.511L257.169 173.044Z" fill="#24285B"/>
<path opacity="0.18" d="M173.973 291.009L162.688 310.055C162.688 310.055 121.772 290.263 110.045 236.701C98.3174 183.14 137.007 204.013 137.007 204.013L173.973 291.009Z" fill="black"/>
<path d="M162.688 310.055C162.688 310.055 200.599 232.895 256.658 233.184C312.717 233.474 239.883 357.694 239.883 357.694L221.4 350.189C221.4 350.189 248.85 296.901 241.866 279.742C234.881 262.584 224.206 380.943 162.688 310.055Z" fill="#24285B"/>
<path d="M130.251 157.029C130.251 157.029 147.117 148.488 155.688 165.844C164.258 183.201 157.502 257.849 192.288 261.762C227.073 265.675 244.717 229.5 244.717 229.5C244.717 229.5 247.584 214.275 252.342 211.748C257.1 209.22 261.294 225.222 252.342 234.585C252.342 234.585 237.001 292.12 188.292 293.415C139.584 294.709 82.2284 196.431 130.251 157.029Z" fill="#F4A28C"/>
<path d="M164.35 100.544C164.35 100.544 175.436 113.562 161.086 116.287C146.736 119.012 143.777 121.585 145.15 136.079C146.522 150.574 152.211 163.926 133.179 173.015C114.147 182.105 130.51 197.375 127.002 215.189C123.495 233.002 106.766 245.304 85.3394 233.154C63.9131 221.004 50.6914 189.915 73.6579 171.295C96.6244 152.675 125.508 148.153 125.508 118.129C125.508 88.1054 149.511 86.5525 164.35 100.544Z" fill="#24285B"/>
<path opacity="0.7" d="M404.69 212.935C413.23 212.935 420.153 206.023 420.153 197.497C420.153 188.971 413.23 182.059 404.69 182.059C396.149 182.059 389.226 188.971 389.226 197.497C389.226 206.023 396.149 212.935 404.69 212.935Z" fill="white"/>
<path opacity="0.7" d="M425.715 173.837H406.829C404.62 173.837 402.829 175.628 402.829 177.837V196.679C402.829 198.888 404.62 200.679 406.829 200.679H425.715C427.924 200.679 429.715 198.888 429.715 196.679V177.837C429.715 175.628 427.924 173.837 425.715 173.837Z" fill="white"/>
<path opacity="0.7" d="M454.553 173.837H442.499C440.29 173.837 438.499 175.628 438.499 177.837V214.325C438.499 216.534 440.29 218.325 442.499 218.325H454.553C456.762 218.325 458.553 216.534 458.553 214.325V177.837C458.553 175.628 456.762 173.837 454.553 173.837Z" fill="white"/>
<path d="M256.042 233.576L241.835 228.168L238.776 236.178L252.983 241.585L256.042 233.576Z" fill="#68E1FD"/>
<path opacity="0.44" d="M256.042 233.576L241.835 228.168L238.776 236.178L252.983 241.585L256.042 233.576Z" fill="white"/>
</svg>
